<svg width="40" height="38" viewBox="0 0 40 38" fill="none" xmlns="http://www.w3.org/2000/svg">
<path fill-rule="evenodd" clip-rule="evenodd" d="M18.671 2.84301C19.0371 2.51743 19.51 2.33759 20 2.33759C20.4899 2.33759 20.9629 2.51743 21.329 2.84301L25.263 6.34001L25.513 4.83601C25.5345 4.70646 25.5814 4.58242 25.6508 4.47098C25.7203 4.35953 25.8111 4.26286 25.9179 4.18648C26.0247 4.11011 26.1456 4.05552 26.2735 4.02584C26.4014 3.99616 26.5339 3.99197 26.6635 4.01351C26.793 4.03505 26.9171 4.08189 27.0285 4.15136C27.14 4.22084 27.2366 4.31158 27.313 4.41841C27.3894 4.52525 27.444 4.64608 27.4737 4.77401C27.5033 4.90194 27.5075 5.03446 27.486 5.16401L27.03 7.91001L29.665 10.253C29.8531 10.4317 29.9644 10.6766 29.9754 10.9358C29.9863 11.1951 29.8961 11.4484 29.7237 11.6424C29.5513 11.8363 29.3102 11.9557 29.0515 11.9752C28.7927 11.9947 28.5365 11.9129 28.337 11.747L27.873 11.335L27.086 19.199C27.0366 19.6927 26.8055 20.1504 26.4376 20.4832C26.0696 20.8161 25.5911 21.0002 25.095 21H14.905C14.409 21 13.9308 20.8157 13.563 20.4829C13.1953 20.1501 12.9643 19.6925 12.915 19.199L12.129 11.335L11.664 11.747C11.4644 11.9129 11.2082 11.9947 10.9495 11.9752C10.6907 11.9557 10.4497 11.8363 10.2773 11.6424C10.1049 11.4484 10.0147 11.1951 10.0256 10.9358C10.0366 10.6766 10.1479 10.4317 10.336 10.253L18.671 2.84301ZM13.957 9.71001C13.9757 9.77134 13.9883 9.83501 13.995 9.90101L14.905 19.001H25.095L26.005 9.90101C26.0117 9.83434 26.0243 9.77101 26.043 9.71101L20 4.33701L13.957 9.71001Z" fill="#FAC93E"/>
<path d="M5.63428 35V27H6.60303V30.5625H10.8687V27H11.8374V35H10.8687V31.4219H6.60303V35H5.63428ZM16.0894 35.125C15.5477 35.125 15.0724 34.9961 14.6636 34.7383C14.2573 34.4805 13.9396 34.1198 13.7104 33.6562C13.4839 33.1927 13.3706 32.651 13.3706 32.0312C13.3706 31.4062 13.4839 30.8607 13.7104 30.3945C13.9396 29.9284 14.2573 29.5664 14.6636 29.3086C15.0724 29.0508 15.5477 28.9219 16.0894 28.9219C16.631 28.9219 17.105 29.0508 17.5112 29.3086C17.9201 29.5664 18.2378 29.9284 18.4644 30.3945C18.6935 30.8607 18.8081 31.4062 18.8081 32.0312C18.8081 32.651 18.6935 33.1927 18.4644 33.6562C18.2378 34.1198 17.9201 34.4805 17.5112 34.7383C17.105 34.9961 16.631 35.125 16.0894 35.125ZM16.0894 34.2969C16.5008 34.2969 16.8394 34.1914 17.105 33.9805C17.3706 33.7695 17.5672 33.4922 17.6948 33.1484C17.8224 32.8047 17.8862 32.4323 17.8862 32.0312C17.8862 31.6302 17.8224 31.2565 17.6948 30.9102C17.5672 30.5638 17.3706 30.2839 17.105 30.0703C16.8394 29.8568 16.5008 29.75 16.0894 29.75C15.6779 29.75 15.3394 29.8568 15.0737 30.0703C14.8081 30.2839 14.6115 30.5638 14.4839 30.9102C14.3563 31.2565 14.2925 31.6302 14.2925 32.0312C14.2925 32.4323 14.3563 32.8047 14.4839 33.1484C14.6115 33.4922 14.8081 33.7695 15.0737 33.9805C15.3394 34.1914 15.6779 34.2969 16.0894 34.2969ZM20.2153 35V29H21.106V29.9375H21.1841C21.3091 29.6172 21.5109 29.3685 21.7896 29.1914C22.0682 29.0117 22.4028 28.9219 22.7935 28.9219C23.1893 28.9219 23.5187 29.0117 23.7817 29.1914C24.0474 29.3685 24.2544 29.6172 24.4028 29.9375H24.4653C24.619 29.6276 24.8494 29.3815 25.1567 29.1992C25.464 29.0143 25.8325 28.9219 26.2622 28.9219C26.7987 28.9219 27.2375 29.0898 27.5786 29.4258C27.9198 29.7591 28.0903 30.2786 28.0903 30.9844V35H27.1685V30.9844C27.1685 30.5417 27.0474 30.2253 26.8052 30.0352C26.563 29.8451 26.2778 29.75 25.9497 29.75C25.5278 29.75 25.201 29.8776 24.9692 30.1328C24.7375 30.3854 24.6216 30.7057 24.6216 31.0937V35H23.6841V30.8906C23.6841 30.5495 23.5734 30.2747 23.3521 30.0664C23.1307 29.8555 22.8455 29.75 22.4966 29.75C22.257 29.75 22.033 29.8138 21.8247 29.9414C21.619 30.069 21.4523 30.2461 21.3247 30.4727C21.1997 30.6966 21.1372 30.9557 21.1372 31.25V35H20.2153ZM32.2915 35.125C31.7134 35.125 31.2147 34.9974 30.7954 34.7422C30.3787 34.4844 30.0571 34.125 29.8306 33.6641C29.6066 33.2005 29.4946 32.6615 29.4946 32.0469C29.4946 31.4323 29.6066 30.8906 29.8306 30.4219C30.0571 29.9505 30.3722 29.5833 30.7759 29.3203C31.1821 29.0547 31.6561 28.9219 32.1978 28.9219C32.5103 28.9219 32.8188 28.974 33.1235 29.0781C33.4282 29.1823 33.7056 29.3516 33.9556 29.5859C34.2056 29.8177 34.4048 30.125 34.5532 30.5078C34.7017 30.8906 34.7759 31.362 34.7759 31.9219V32.3125H30.1509V31.5156H33.8384C33.8384 31.1771 33.7707 30.875 33.6353 30.6094C33.5024 30.3437 33.3123 30.1341 33.0649 29.9805C32.8201 29.8268 32.5311 29.75 32.1978 29.75C31.8306 29.75 31.5129 29.8411 31.2446 30.0234C30.979 30.2031 30.7746 30.4375 30.6313 30.7266C30.4881 31.0156 30.4165 31.3255 30.4165 31.6562V32.1875C30.4165 32.6406 30.4946 33.0247 30.6509 33.3398C30.8097 33.6523 31.0298 33.8906 31.311 34.0547C31.5923 34.2161 31.9191 34.2969 32.2915 34.2969C32.5337 34.2969 32.7524 34.263 32.9478 34.1953C33.1457 34.125 33.3162 34.0208 33.4595 33.8828C33.6027 33.7422 33.7134 33.5677 33.7915 33.3594L34.6821 33.6094C34.5884 33.9115 34.4308 34.1771 34.2095 34.4062C33.9881 34.6328 33.7147 34.8099 33.3892 34.9375C33.0636 35.0625 32.6978 35.125 32.2915 35.125Z" fill="#FAC93E"/>
</svg>
