<svg width="56" height="56" viewBox="0 0 56 56" fill="none" xmlns="http://www.w3.org/2000/svg">
<circle cx="28" cy="28" r="28" fill="#F6F6F6" fill-opacity="0.1"/>
<path d="M23 36H33V38H23V36ZM25 40H31V42H25V40ZM28 14C25.3478 14 22.8043 15.0536 20.9289 16.9289C19.0536 18.8043 18 21.3478 18 24C17.9324 25.4533 18.2108 26.902 18.8123 28.2267C19.4138 29.5514 20.3213 30.7144 21.46 31.62C22.46 32.55 23 33.08 23 34H25C25 32.16 23.89 31.13 22.81 30.14C21.8753 29.4243 21.1305 28.4903 20.6406 27.4198C20.1507 26.3494 19.9307 25.1752 20 24C20 21.8783 20.8428 19.8434 22.3431 18.3431C23.8434 16.8429 25.8783 16 28 16C30.1217 16 32.1565 16.8429 33.6568 18.3431C35.1571 19.8434 36 21.8783 36 24C36.0681 25.176 35.8466 26.3508 35.3549 27.4213C34.8633 28.4918 34.1165 29.4253 33.18 30.14C32.11 31.14 31 32.14 31 34H33C33 33.08 33.53 32.55 34.54 31.61C35.6779 30.706 36.585 29.5447 37.1865 28.2217C37.788 26.8987 38.0668 25.4518 38 24C38 22.6868 37.7413 21.3864 37.2388 20.1732C36.7362 18.9599 35.9996 17.8575 35.0711 16.9289C34.1425 16.0003 33.0401 15.2638 31.8268 14.7612C30.6136 14.2587 29.3132 14 28 14Z" fill="#F6F6F6"/>
</svg>
