<svg width="50" height="51" viewBox="0 0 50 51" fill="none" xmlns="http://www.w3.org/2000/svg">
<circle cx="25" cy="25.5" r="24.25" fill="#24794D" stroke="#F6F6F6" stroke-width="1.5"/>
<path d="M24.5 32V29M14.852 27.214C14.498 24.916 14.322 23.768 14.756 22.749C15.19 21.73 16.154 21.034 18.081 19.641L19.521 18.6C21.918 16.867 23.117 16 24.501 16C25.883 16 27.081 16.867 29.479 18.6L30.919 19.641C32.846 21.034 33.809 21.731 34.244 22.749C34.678 23.768 34.502 24.916 34.149 27.213L33.848 29.173C33.348 32.429 33.097 34.057 31.929 35.029C30.761 36.001 29.054 36 25.64 36H23.36C19.945 36 18.238 36 17.07 35.029C15.902 34.057 15.652 32.429 15.152 29.172L14.852 27.214Z" stroke="#F6F6F6" stroke-width="1.5" stroke-linecap="round" stroke-linejoin="round"/>
</svg>
