<svg width="45" height="45" viewBox="0 0 45 45" fill="none" xmlns="http://www.w3.org/2000/svg">
<rect width="45" height="45" rx="5" fill="#24794D" fill-opacity="0.2"/>
<path d="M10.7374 9C10.9643 9.96522 11.2274 10.9068 11.5257 11.8205C11.4737 11.8126 11.4217 11.8095 11.3697 11.8116C10.8803 11.8305 10.3713 12.2645 9.86817 12.5598C10.5389 13.0852 11.1544 13.939 12.0242 13.2423C12.1271 13.5135 12.2327 13.7867 12.3414 14.0494C12.178 13.9968 12.0331 13.9653 11.9044 13.9601C11.0567 13.9233 10.8934 14.8901 10.5809 15.6414C11.4223 15.6572 12.4202 15.9672 12.7122 14.9216C13.0005 15.5784 13.3067 16.2089 13.6324 16.8184C13.5641 16.8184 13.5011 16.8132 13.4433 16.8132C12.25 16.8342 12.4244 17.9481 12.3382 18.8518C13.0882 18.6364 14.0368 18.6206 14.1471 17.7589C15.1817 19.5454 16.3634 21.1375 17.6555 22.4826C14.2784 22.1253 11.2631 20.9956 9.05777 19.8922V22.966C12.3839 24.3583 16.3372 24.9678 20.1607 24.6789C20.8908 25.2095 21.6471 25.6772 22.4296 26.0712C21.2216 26.2762 21.4107 27.5845 21.3057 28.6669C22.4296 28.3411 23.9055 28.3674 23.6166 26.6124C24.0053 26.7701 24.4044 26.9119 24.8036 27.038C23.8739 27.9575 24.6828 28.9664 25.1607 29.9594C25.6807 29.1398 26.5105 28.3831 25.9748 27.348C28.1176 27.8209 30.3603 27.8104 32.6397 27.2535C32.146 27.6423 31.5893 28.0101 30.9905 28.3621C28.9002 29.5811 26.2584 30.5584 23.4748 31.0418C18.3015 31.9403 12.6849 31.1522 9 27.3008V28.6143C9.20798 28.8035 9.42069 28.9821 9.63813 29.1555C9.29202 30.4376 9.38445 31.7722 9.80935 33.1068L10.7106 32.823C10.3697 31.7512 10.2752 30.7371 10.4669 29.7598C11.0499 30.1538 11.6591 30.4954 12.2883 30.7949C12.6465 31.7512 12.5005 32.5918 12.2159 33.5061L13.1192 33.7898C13.3592 33.0122 13.5326 32.161 13.3855 31.252C13.8372 31.4201 14.2994 31.5725 14.7668 31.6986C14.6303 32.5078 14.9139 33.2224 15.124 34L16.0378 33.7373C15.8803 33.1173 15.6124 32.5603 15.7069 31.9193C18.291 32.4657 21.0326 32.4237 23.6376 31.9718C25.2815 31.6828 26.8782 31.2362 28.354 30.6635C28.2069 31.5305 28.3382 32.4237 28.6849 33.2959L29.5672 32.9491C29.1733 31.9666 29.1208 31.0786 29.4569 30.2064C29.7931 30.054 30.1292 29.8964 30.4496 29.7335C30.6176 30.5059 30.4811 31.2152 30.2395 31.9876L31.1429 32.2713C31.4212 31.3676 31.6208 30.3588 31.3109 29.2711C32.2721 28.6774 33.2542 28.0206 34 27.3638V25.8558C32.3718 26.439 30.7752 26.7333 29.2101 26.7543C29.7878 26.2131 29.52 25.1885 29.4779 24.2848C28.4118 24.7682 26.9412 24.9573 27.4874 26.6597C25.4233 26.4128 23.4433 25.6772 21.6103 24.5212C22.0725 24.4582 22.5347 24.3794 22.9863 24.29C27.6555 23.3443 31.7941 20.943 34 16.8815V15.673C32.1723 17.8693 30.2027 19.4456 28.1859 20.5332C27.7815 19.7818 27.0567 18.5996 27.0567 17.7747C27.062 17.6854 27.1513 17.5172 27.3246 17.2755C27.4926 17.0286 27.75 16.7081 27.75 16.2352C27.7237 15.7465 27.5189 15.2894 27.3036 14.9164C29.8981 13.9285 31.8151 11.4133 32.1565 9H31.2059C30.833 11.1338 28.8319 13.5765 26.3845 14.2228C25.1082 14.5643 23.7216 14.4487 22.3036 13.5975C20.9853 12.8099 19.6303 11.3629 18.396 9H17.3298C18.4958 11.345 19.7931 12.9497 21.1481 13.9601C20.8855 14.538 20.5704 15.2736 20.5546 15.8253C20.5494 16.4243 20.8487 16.8815 21.0693 17.2703C21.2847 17.6538 21.4317 17.9533 21.4107 18.195C21.2059 18.9044 20.8435 19.4403 20.3813 20.0183L21.1061 20.6173C21.5998 19.9605 22.2826 19.0357 22.3561 18.2686C22.3981 17.6644 22.1092 17.1915 21.8887 16.7974C21.6628 16.4086 21.5 16.0881 21.5 15.8359C21.5735 15.3262 21.7626 14.9164 21.9412 14.4855C22.4769 14.7902 23.0126 15.0057 23.5483 15.1475C23.5746 15.2106 23.6008 15.2842 23.6271 15.3577C23.7479 15.694 23.8582 16.1143 23.8582 16.272C23.8582 16.3928 23.7637 16.6135 23.6271 16.9077C23.4905 17.1967 23.3015 17.5803 23.4013 18.0479C23.6586 18.8308 24.1943 19.351 24.7931 19.8764L25.4128 19.1618C25.0714 18.8045 24.4674 18.3579 24.3256 17.8483C24.3046 17.7484 24.3519 17.5803 24.4779 17.3123C24.6092 17.0496 24.8088 16.7133 24.8036 16.2615C24.7983 15.9409 24.7143 15.6204 24.6197 15.3262C25.2185 15.3682 25.8067 15.3262 26.3739 15.2001C26.7206 15.7781 26.7994 16.3613 26.5525 16.7291C26.3792 16.9708 26.1271 17.286 26.1113 17.7484V17.7537C26.1954 18.9727 26.7731 19.971 27.3403 20.9588C25.0294 22.0464 22.6712 22.5298 20.4076 22.5929C19.9664 22.6034 19.5357 22.6034 19.0998 22.5876C18.6744 22.1936 18.2595 21.7732 17.8603 21.3266C18.6113 21.2478 18.9055 20.3073 19.3099 19.5822C18.8529 19.5244 18.3697 19.3825 17.9338 19.3773C17.4664 19.372 17.0567 19.5139 16.8099 20.0708C16.5683 19.7556 16.3319 19.4351 16.1061 19.104C17.4664 19.041 17.1618 17.9008 17.1565 16.955C16.458 17.2335 15.5546 17.3491 15.4706 18.1372C14.3204 16.293 13.3435 14.186 12.5809 11.8615C13.2468 12.2866 13.895 11.5967 14.5462 11.1501C14.0368 10.8012 13.5483 10.2763 13.0026 10.2994C12.7589 10.3099 12.5042 10.4302 12.2321 10.7255C12.068 10.1542 11.9185 9.57888 11.7836 9H10.7374Z" fill="#24794D"/>
</svg>
