<svg width="45" height="45" viewBox="0 0 45 45" fill="none" xmlns="http://www.w3.org/2000/svg">
<rect width="45" height="45" rx="5" fill="#74621B" fill-opacity="0.2"/>
<path d="M14.6875 31.3542V22.9854C13.8785 22.8396 13.1955 22.4924 12.6385 21.9437C12.0816 21.3944 11.7431 20.7205 11.6229 19.9219C11.6229 19.774 11.6729 19.6503 11.7729 19.551C11.8722 19.451 11.9958 19.401 12.1438 19.401C12.2917 19.401 12.4156 19.451 12.5156 19.551C12.6156 19.651 12.6653 19.7747 12.6646 19.9219C12.7979 20.4913 13.0986 20.9764 13.5667 21.3771C14.0347 21.7778 14.5733 21.9785 15.1823 21.9792H16.7708V18.8187C15.9618 18.6458 15.2854 18.2917 14.7417 17.7562C14.1979 17.2208 13.8528 16.5538 13.7063 15.7552C13.7063 15.6073 13.7563 15.4837 13.8563 15.3844C13.9563 15.2844 14.0799 15.2344 14.2271 15.2344C14.375 15.2344 14.499 15.2844 14.599 15.3844C14.699 15.4844 14.7486 15.608 14.7479 15.7552C14.8813 16.3247 15.182 16.8097 15.65 17.2104C16.1181 17.6111 16.6566 17.8118 17.2656 17.8125H18.0729L21.675 13.0146C21.7896 12.884 21.9181 12.7826 22.0604 12.7104C22.2035 12.6382 22.3507 12.6021 22.5021 12.6021C22.6528 12.6021 22.799 12.6382 22.9406 12.7104C23.0823 12.7826 23.2108 12.884 23.326 13.0146L26.9271 17.8125H27.7344C28.3434 17.8125 28.882 17.6118 29.35 17.2104C29.8181 16.809 30.1188 16.324 30.2521 15.7552C30.2521 15.6073 30.3021 15.4837 30.4021 15.3844C30.5021 15.2851 30.626 15.2351 30.774 15.2344C30.9219 15.2337 31.0455 15.2837 31.1448 15.3844C31.2441 15.4851 31.2938 15.6087 31.2938 15.7552C31.1875 16.5399 30.859 17.2003 30.3083 17.7365C29.7583 18.2719 29.0653 18.6326 28.2292 18.8187V21.9792H29.8177C30.4267 21.9792 30.9653 21.7785 31.4333 21.3771C31.9014 20.9757 32.2021 20.4906 32.3354 19.9219C32.3354 19.774 32.3854 19.6503 32.4854 19.551C32.5854 19.4517 32.7094 19.4017 32.8573 19.401C33.0052 19.4003 33.1288 19.4503 33.2281 19.551C33.3274 19.6517 33.3771 19.7753 33.3771 19.9219C33.284 20.7066 32.959 21.3736 32.4021 21.9229C31.8451 22.4715 31.1486 22.8257 30.3125 22.9854V31.3542C30.3125 31.6333 30.2087 31.8767 30.001 32.0844C29.7934 32.292 29.55 32.3958 29.2708 32.3958H24.9042C24.6653 32.3958 24.4653 32.3153 24.3042 32.1542C24.1431 31.9931 24.0625 31.7931 24.0625 31.5542V28.75C24.0625 28.3215 23.9094 27.9538 23.6031 27.6469C23.2962 27.3406 22.9285 27.1875 22.5 27.1875C22.0715 27.1875 21.7038 27.3406 21.3969 27.6469C21.0899 27.9531 20.9368 28.3208 20.9375 28.75V31.5542C20.9375 31.7931 20.857 31.9931 20.6958 32.1542C20.5347 32.3153 20.3347 32.3958 20.0958 32.3958H15.7292C15.45 32.3958 15.2066 32.292 14.999 32.0844C14.7913 31.8767 14.6875 31.6333 14.6875 31.3542ZM19.375 17.8125H25.625L22.5 13.6437L19.375 17.8125ZM17.8125 21.9792H27.1875V18.8542H17.8125V21.9792ZM15.7292 31.3542H19.8958V28.75C19.8958 28.0264 20.149 27.4118 20.6552 26.9062C21.1608 26.3993 21.775 26.1458 22.4979 26.1458C23.2208 26.1458 23.8358 26.3993 24.3427 26.9062C24.8497 27.4132 25.1035 28.0278 25.1042 28.75V31.3542H29.2708V23.0208H15.7292V31.3542Z" fill="#8E7D39"/>
</svg>
