<svg width="45" height="46" viewBox="0 0 45 46" fill="none" xmlns="http://www.w3.org/2000/svg">
<rect width="45" height="46" rx="5" fill="#5E7924" fill-opacity="0.2"/>
<path d="M19.5383 13.9882C19.3508 13.9945 19.1677 14.0457 19.0042 14.1377C18.5166 14.4141 18.1852 14.9286 17.7805 15.6865C17.3758 16.4443 16.9235 17.4639 16.363 18.7733C15.2417 21.3921 13.6917 25.1689 11.3107 30.2205C11.2836 30.2757 11.2677 30.3358 11.2641 30.3972C11.2604 30.4587 11.269 30.5202 11.2894 30.5783C11.3097 30.6364 11.3414 30.6898 11.3827 30.7355C11.4239 30.7812 11.4738 30.8183 11.5295 30.8445C11.5852 30.8707 11.6455 30.8856 11.707 30.8883C11.7685 30.8909 11.8299 30.8813 11.8876 30.86C11.9454 30.8388 11.9983 30.8062 12.0433 30.7642C12.0884 30.7223 12.1246 30.6718 12.1499 30.6157C14.5408 25.5433 16.1 21.7445 17.2158 19.1379C17.7738 17.8347 18.2217 16.8296 18.5983 16.1243C18.975 15.419 19.3064 15.0322 19.4605 14.9448C19.5375 14.9012 19.547 14.9047 19.5962 14.9175C19.6455 14.9302 19.7493 14.9833 19.8892 15.1204C20.169 15.3945 20.5565 15.9714 21.0275 16.8019C21.959 18.4443 23.261 21.0792 25.2893 24.567C25.0622 25.1204 24.8302 25.6718 24.5935 26.2211C24.5676 26.2773 24.5532 26.3381 24.5511 26.4C24.549 26.4618 24.5594 26.5234 24.5815 26.5812C24.6036 26.639 24.6371 26.6917 24.6799 26.7364C24.7227 26.7811 24.774 26.8167 24.8308 26.8412C24.8876 26.8658 24.9487 26.8787 25.0106 26.8792C25.0725 26.8798 25.1338 26.8679 25.1911 26.8444C25.2483 26.8209 25.3002 26.7862 25.3438 26.7423C25.3874 26.6984 25.4218 26.6462 25.4449 26.5888C26.4252 24.3171 27.0893 22.5309 27.6025 21.3901C27.8592 20.8198 28.0849 20.4106 28.2481 20.2137C28.3186 20.1285 28.3678 20.0933 28.3884 20.081C28.4203 20.0985 28.629 20.2707 28.8736 20.6897C29.1256 21.1214 29.4301 21.7736 29.7938 22.6429C30.521 24.3814 31.4923 26.9938 32.8852 30.5851C32.9068 30.6424 32.9396 30.695 32.9817 30.7396C33.0237 30.7842 33.0742 30.8201 33.1302 30.8451C33.1861 30.8701 33.2465 30.8838 33.3078 30.8853C33.3691 30.8869 33.4301 30.8762 33.4873 30.854C33.5445 30.8319 33.5967 30.7986 33.6409 30.7561C33.6851 30.7136 33.7205 30.6628 33.7449 30.6066C33.7694 30.5503 33.7825 30.4898 33.7834 30.4285C33.7843 30.3672 33.7731 30.3063 33.7504 30.2494C32.3597 26.6639 31.391 24.0562 30.6498 22.2842C30.2792 21.3982 29.9665 20.7226 29.6747 20.2227C29.383 19.7229 29.1332 19.3664 28.7088 19.205C28.6028 19.1647 28.4844 19.1471 28.367 19.1501C28.2497 19.1531 28.1337 19.1771 28.0314 19.2219C27.8267 19.3112 27.6722 19.4548 27.534 19.6216C27.2574 19.9554 27.0252 20.41 26.7558 21.0086C26.4607 21.6645 26.1291 22.4972 25.7318 23.4805C23.9231 20.3272 22.735 17.9312 21.8349 16.344C21.3503 15.4895 20.9579 14.8695 20.5378 14.458C20.3278 14.2522 20.1021 14.0894 19.8283 14.0185C19.7336 13.9944 19.636 13.9842 19.5383 13.988L19.5383 13.9882ZM19.7839 26.6239C17.8335 26.6239 16.2531 28.5297 16.2531 30.8811H23.3148C23.3148 28.5296 21.7344 26.624 19.7839 26.624L19.7839 26.6239Z" fill="#5E7924"/>
</svg>
