<svg width="45" height="46" viewBox="0 0 45 46" fill="none" xmlns="http://www.w3.org/2000/svg">
<rect width="45" height="46" rx="5" fill="#CDA092" fill-opacity="0.2"/>
<path d="M26.6666 33.4167V24.0417C26.6666 22.5688 26.6666 21.8323 26.2083 21.375C25.7521 20.9167 25.0156 20.9167 23.5416 20.9167H21.4583C19.9854 20.9167 19.2489 20.9167 18.7916 21.375C18.3333 21.8313 18.3333 22.5677 18.3333 24.0417V33.4167" stroke="#76321D" stroke-linecap="round"/>
<path opacity="0.5" d="M18.3333 33.4167C18.3333 31.9438 18.3333 31.2073 17.875 30.75C17.4187 30.2917 16.6823 30.2917 15.2083 30.2917C13.7344 30.2917 12.9989 30.2917 12.5416 30.75C12.0833 31.2063 12.0833 31.9427 12.0833 33.4167M32.9166 33.4167V30.2917C32.9166 28.8188 32.9166 28.0823 32.4583 27.625C32.0021 27.1667 31.2656 27.1667 29.7916 27.1667C28.3177 27.1667 27.5823 27.1667 27.125 27.625C26.6666 28.0813 26.6666 28.8177 26.6666 30.2917V33.4167" stroke="#76321D" stroke-linecap="round"/>
<path d="M21.6104 13.649C22.0062 12.9375 22.2042 12.5833 22.5 12.5833C22.7958 12.5833 22.9937 12.9375 23.3896 13.649L23.4917 13.8323C23.6042 14.0344 23.6604 14.1344 23.7479 14.2011C23.8364 14.2677 23.9458 14.2927 24.1646 14.3417L24.3625 14.3875C25.1312 14.5615 25.5156 14.6479 25.6073 14.9417C25.6989 15.2354 25.4364 15.5427 24.9125 16.1552L24.7771 16.3136C24.6281 16.4875 24.5531 16.574 24.5198 16.6823C24.4864 16.7906 24.4979 16.9063 24.5198 17.1386L24.5406 17.35C24.6198 18.1677 24.6594 18.5771 24.4208 18.7583C24.1812 18.9406 23.8208 18.774 23.101 18.4427L22.9156 18.3573C22.7104 18.2636 22.6083 18.2156 22.5 18.2156C22.3917 18.2156 22.2896 18.2636 22.0844 18.3573L21.8989 18.4427C21.1792 18.774 20.8187 18.9406 20.5792 18.7583C20.3396 18.5771 20.3802 18.1677 20.4594 17.35L20.4802 17.1386C20.5021 16.9063 20.5135 16.7906 20.4802 16.6823C20.4469 16.574 20.3719 16.4875 20.2229 16.3136L20.0875 16.1552C19.5635 15.5427 19.301 15.2365 19.3927 14.9417C19.4844 14.6479 19.8687 14.5615 20.6375 14.3875L20.8354 14.3417C21.0542 14.2927 21.1635 14.2688 21.2521 14.2011C21.3396 14.1344 21.3958 14.0344 21.5083 13.8323L21.6104 13.649Z" stroke="#76321D"/>
</svg>
