<svg width="50" height="51" viewBox="0 0 50 51" fill="none" xmlns="http://www.w3.org/2000/svg">
<circle cx="25" cy="25.5" r="24.25" fill="#24794D" stroke="#F6F6F6" stroke-width="1.5"/>
<path d="M21.8697 16.3015C20.3697 15.4415 18.4997 16.5235 18.4997 18.2525V33.7425C18.4997 35.4715 20.3697 36.5545 21.8697 35.6935L35.3707 27.9495C36.8777 27.0845 36.8777 24.9095 35.3707 24.0455L21.8697 16.3015ZM19.9997 18.2525C19.9998 18.1211 20.0345 17.9921 20.1002 17.8783C20.1659 17.7645 20.2603 17.6699 20.374 17.6041C20.4877 17.5383 20.6168 17.5035 20.7482 17.5032C20.8796 17.5029 21.0087 17.5372 21.1227 17.6025L34.6247 25.3465C34.7392 25.4122 34.8343 25.507 34.9005 25.6212C34.9666 25.7354 35.0014 25.865 35.0014 25.997C35.0014 26.129 34.9666 26.2587 34.9005 26.3729C34.8343 26.4871 34.7392 26.5818 34.6247 26.6475L21.1227 34.3925C21.0087 34.4579 20.8796 34.4921 20.7482 34.4919C20.6168 34.4916 20.4877 34.4568 20.374 34.391C20.2603 34.3251 20.1659 34.2306 20.1002 34.1168C20.0345 34.003 19.9998 33.8739 19.9997 33.7425V18.2525Z" fill="#F6F6F6"/>
</svg>
