<svg width="40" height="38" viewBox="0 0 40 38" fill="none" xmlns="http://www.w3.org/2000/svg">
<path fill-rule="evenodd" clip-rule="evenodd" d="M20 2C25.523 2 30 6.477 30 12C30 17.523 25.523 22 20 22C14.477 22 10 17.523 10 12C10 6.477 14.477 2 20 2ZM12.071 13.071C12.306 14.8071 13.1042 16.4182 14.343 17.657C15.5818 18.8958 17.1929 19.694 18.929 19.929C18.6941 18.1925 17.8959 16.5811 16.6569 15.3421C15.4179 14.1031 13.8065 13.3049 12.07 13.07M27.928 13.07C26.1919 13.305 24.5808 14.1032 23.342 15.342C22.1032 16.5808 21.305 18.1919 21.07 19.928C22.8061 19.693 24.4172 18.8948 25.656 17.656C26.8948 16.4172 27.693 14.8061 27.928 13.07ZM20 7.364C19.017 9.38457 17.3846 11.017 15.364 12C17.3846 12.983 19.017 14.6154 20 16.636C20.983 14.6154 22.6154 12.983 24.636 12C22.6154 11.017 20.983 9.38457 20 7.364ZM18.929 4.071C17.1926 4.30602 15.5813 5.10427 14.3423 6.34328C13.1033 7.58229 12.305 9.19361 12.07 10.93C13.8068 10.6953 15.4185 9.89704 16.6578 8.65778C17.897 7.41853 18.6953 5.80678 18.93 4.07M21.072 4.07C21.307 5.80613 22.1052 7.4172 23.344 8.65602C24.5828 9.89484 26.1939 10.693 27.93 10.928C27.6949 9.19158 26.8965 7.58029 25.6572 6.34143C24.418 5.10257 22.8065 4.3046 21.07 4.07" fill="#C2C2C2"/>
<path d="M11.2695 29.5C11.1836 29.237 11.0703 29.0013 10.9297 28.793C10.7917 28.582 10.6263 28.4023 10.4336 28.2539C10.2435 28.1055 10.0273 27.9922 9.78516 27.9141C9.54297 27.8359 9.27734 27.7969 8.98828 27.7969C8.51432 27.7969 8.08333 27.9193 7.69531 28.1641C7.30729 28.4089 6.9987 28.7695 6.76953 29.2461C6.54036 29.7227 6.42578 30.3073 6.42578 31C6.42578 31.6927 6.54167 32.2773 6.77344 32.7539C7.00521 33.2305 7.31901 33.5911 7.71484 33.8359C8.11068 34.0807 8.55599 34.2031 9.05078 34.2031C9.50911 34.2031 9.91276 34.1055 10.2617 33.9102C10.6133 33.7122 10.8867 33.4336 11.082 33.0742C11.2799 32.7122 11.3789 32.2865 11.3789 31.7969L11.6758 31.8594H9.26953V31H12.3164V31.8594C12.3164 32.5182 12.1758 33.0911 11.8945 33.5781C11.6159 34.0651 11.2305 34.4427 10.7383 34.7109C10.2487 34.9766 9.6862 35.1094 9.05078 35.1094C8.34245 35.1094 7.72005 34.9427 7.18359 34.6094C6.64974 34.276 6.23307 33.8021 5.93359 33.1875C5.63672 32.5729 5.48828 31.8437 5.48828 31C5.48828 30.3672 5.57292 29.7982 5.74219 29.293C5.91406 28.7852 6.15625 28.3529 6.46875 27.9961C6.78125 27.6393 7.15104 27.3659 7.57813 27.1758C8.00521 26.9857 8.47526 26.8906 8.98828 26.8906C9.41016 26.8906 9.80339 26.9544 10.168 27.082C10.5352 27.207 10.862 27.3854 11.1484 27.6172C11.4375 27.8464 11.6784 28.1211 11.8711 28.4414C12.0638 28.7591 12.1966 29.112 12.2695 29.5H11.2695ZM15.6162 35.1406C15.236 35.1406 14.891 35.069 14.5811 34.9258C14.2712 34.7799 14.0251 34.5703 13.8428 34.2969C13.6605 34.0208 13.5693 33.6875 13.5693 33.2969C13.5693 32.9531 13.637 32.6745 13.7725 32.4609C13.9079 32.2448 14.0889 32.0755 14.3154 31.9531C14.542 31.8307 14.792 31.7396 15.0654 31.6797C15.3415 31.6172 15.6188 31.5677 15.8975 31.5313C16.262 31.4844 16.5576 31.4492 16.7842 31.4258C17.0133 31.3997 17.18 31.3568 17.2842 31.2969C17.391 31.237 17.4443 31.1328 17.4443 30.9844V30.9531C17.4443 30.5677 17.3389 30.2682 17.1279 30.0547C16.9196 29.8411 16.6032 29.7344 16.1787 29.7344C15.7386 29.7344 15.3936 29.8307 15.1436 30.0234C14.8936 30.2161 14.7178 30.4219 14.6162 30.6406L13.7412 30.3281C13.8975 29.9635 14.1058 29.6797 14.3662 29.4766C14.6292 29.2708 14.9157 29.1276 15.2256 29.0469C15.5381 28.9635 15.8454 28.9219 16.1475 28.9219C16.3402 28.9219 16.5615 28.9453 16.8115 28.9922C17.0641 29.0365 17.3076 29.1289 17.542 29.2695C17.779 29.4102 17.9756 29.6224 18.1318 29.9062C18.2881 30.1901 18.3662 30.5703 18.3662 31.0469V35H17.4443V34.1875H17.3975C17.335 34.3177 17.2308 34.457 17.085 34.6055C16.9391 34.7539 16.7451 34.8802 16.5029 34.9844C16.2607 35.0885 15.9652 35.1406 15.6162 35.1406ZM15.7568 34.3125C16.1214 34.3125 16.4287 34.2409 16.6787 34.0977C16.9313 33.9544 17.1214 33.7695 17.249 33.543C17.3792 33.3164 17.4443 33.0781 17.4443 32.8281V31.9844C17.4053 32.0312 17.3193 32.0742 17.1865 32.1133C17.0563 32.1497 16.9053 32.1823 16.7334 32.2109C16.5641 32.237 16.3988 32.2604 16.2373 32.2812C16.0785 32.2995 15.9495 32.3151 15.8506 32.3281C15.611 32.3594 15.387 32.4102 15.1787 32.4805C14.973 32.5482 14.8063 32.651 14.6787 32.7891C14.5537 32.9245 14.4912 33.1094 14.4912 33.3437C14.4912 33.6641 14.6097 33.9062 14.8467 34.0703C15.0863 34.2318 15.3896 34.3125 15.7568 34.3125ZM20.0488 35V29H20.9395V29.9375H21.0176C21.1426 29.6172 21.3444 29.3685 21.623 29.1914C21.9017 29.0117 22.2363 28.9219 22.627 28.9219C23.0228 28.9219 23.3522 29.0117 23.6152 29.1914C23.8809 29.3685 24.0879 29.6172 24.2363 29.9375H24.2988C24.4525 29.6276 24.6829 29.3815 24.9902 29.1992C25.2975 29.0143 25.666 28.9219 26.0957 28.9219C26.6322 28.9219 27.071 29.0898 27.4121 29.4258C27.7533 29.7591 27.9238 30.2786 27.9238 30.9844V35H27.002V30.9844C27.002 30.5417 26.8809 30.2253 26.6387 30.0352C26.3965 29.8451 26.1113 29.75 25.7832 29.75C25.3613 29.75 25.0345 29.8776 24.8027 30.1328C24.571 30.3854 24.4551 30.7057 24.4551 31.0937V35H23.5176V30.8906C23.5176 30.5495 23.4069 30.2747 23.1855 30.0664C22.9642 29.8555 22.679 29.75 22.3301 29.75C22.0905 29.75 21.8665 29.8138 21.6582 29.9414C21.4525 30.069 21.2858 30.2461 21.1582 30.4727C21.0332 30.6966 20.9707 30.9557 20.9707 31.25V35H20.0488ZM32.125 35.125C31.5469 35.125 31.0482 34.9974 30.6289 34.7422C30.2122 34.4844 29.8906 34.125 29.6641 33.6641C29.4401 33.2005 29.3281 32.6615 29.3281 32.0469C29.3281 31.4323 29.4401 30.8906 29.6641 30.4219C29.8906 29.9505 30.2057 29.5833 30.6094 29.3203C31.0156 29.0547 31.4896 28.9219 32.0312 28.9219C32.3438 28.9219 32.6523 28.974 32.957 29.0781C33.2617 29.1823 33.5391 29.3516 33.7891 29.5859C34.0391 29.8177 34.2383 30.125 34.3867 30.5078C34.5352 30.8906 34.6094 31.362 34.6094 31.9219V32.3125H29.9844V31.5156H33.6719C33.6719 31.1771 33.6042 30.875 33.4688 30.6094C33.3359 30.3437 33.1458 30.1341 32.8984 29.9805C32.6536 29.8268 32.3646 29.75 32.0312 29.75C31.6641 29.75 31.3464 29.8411 31.0781 30.0234C30.8125 30.2031 30.6081 30.4375 30.4648 30.7266C30.3216 31.0156 30.25 31.3255 30.25 31.6562V32.1875C30.25 32.6406 30.3281 33.0247 30.4844 33.3398C30.6432 33.6523 30.8633 33.8906 31.1445 34.0547C31.4258 34.2161 31.7526 34.2969 32.125 34.2969C32.3672 34.2969 32.5859 34.263 32.7813 34.1953C32.9792 34.125 33.1497 34.0208 33.293 33.8828C33.4362 33.7422 33.5469 33.5677 33.625 33.3594L34.5156 33.6094C34.4219 33.9115 34.2643 34.1771 34.043 34.4062C33.8216 34.6328 33.5482 34.8099 33.2227 34.9375C32.8971 35.0625 32.5313 35.125 32.125 35.125Z" fill="#C2C2C2"/>
</svg>
