<svg width="40" height="38" viewBox="0 0 40 38" fill="none" xmlns="http://www.w3.org/2000/svg">
<path fill-rule="evenodd" clip-rule="evenodd" d="M20 13C22.396 13 24.575 13.694 26.178 14.672C26.978 15.16 27.662 15.736 28.156 16.362C28.642 16.977 29 17.713 29 18.5C29 19.345 28.589 20.011 27.997 20.486C27.437 20.936 26.698 21.234 25.913 21.442C24.335 21.859 22.229 22 20 22C17.771 22 15.665 21.86 14.087 21.442C13.302 21.234 12.563 20.936 12.003 20.486C11.41 20.01 11 19.345 11 18.5C11 17.713 11.358 16.977 11.844 16.361C12.338 15.736 13.021 15.161 13.822 14.671C15.425 13.695 17.605 13 20 13ZM20 15C17.977 15 16.157 15.59 14.864 16.379C14.217 16.773 13.729 17.201 13.414 17.601C13.09 18.011 13 18.321 13 18.5C13 18.622 13.037 18.751 13.255 18.926C13.504 19.126 13.937 19.333 14.599 19.508C15.917 19.858 17.811 20 20 20C22.19 20 24.083 19.857 25.4 19.508C26.063 19.333 26.496 19.126 26.745 18.926C26.963 18.751 27 18.622 27 18.5C27 18.32 26.91 18.011 26.587 17.601C26.271 17.201 25.783 16.773 25.136 16.379C23.843 15.589 22.023 15 20 15ZM20 2C21.3261 2 22.5979 2.52678 23.5355 3.46447C24.4732 4.40215 25 5.67392 25 7C25 8.32608 24.4732 9.59785 23.5355 10.5355C22.5979 11.4732 21.3261 12 20 12C18.6739 12 17.4021 11.4732 16.4645 10.5355C15.5268 9.59785 15 8.32608 15 7C15 5.67392 15.5268 4.40215 16.4645 3.46447C17.4021 2.52678 18.6739 2 20 2ZM20 4C19.606 4 19.2159 4.0776 18.8519 4.22836C18.488 4.37913 18.1573 4.6001 17.8787 4.87868C17.6001 5.15726 17.3791 5.48797 17.2284 5.85195C17.0776 6.21593 17 6.60603 17 7C17 7.39397 17.0776 7.78407 17.2284 8.14805C17.3791 8.51203 17.6001 8.84274 17.8787 9.12132C18.1573 9.3999 18.488 9.62087 18.8519 9.77164C19.2159 9.9224 19.606 10 20 10C20.7956 10 21.5587 9.68393 22.1213 9.12132C22.6839 8.55871 23 7.79565 23 7C23 6.20435 22.6839 5.44129 22.1213 4.87868C21.5587 4.31607 20.7956 4 20 4Z" fill="#C2C2C2"/>
<path d="M4.44727 35V27H7.15039C7.77799 27 8.29102 27.1133 8.68945 27.3398C9.0905 27.5638 9.38737 27.8672 9.58008 28.25C9.77279 28.6328 9.86914 29.0599 9.86914 29.5312C9.86914 30.0026 9.77279 30.431 9.58008 30.8164C9.38997 31.2018 9.0957 31.5091 8.69727 31.7383C8.29883 31.9648 7.78841 32.0781 7.16602 32.0781H5.22852V31.2188H7.13477C7.56445 31.2188 7.90951 31.1445 8.16992 30.9961C8.43034 30.8477 8.61914 30.6471 8.73633 30.3945C8.85612 30.1393 8.91602 29.8516 8.91602 29.5312C8.91602 29.2109 8.85612 28.9245 8.73633 28.6719C8.61914 28.4193 8.42904 28.2214 8.16602 28.0781C7.90299 27.9323 7.55404 27.8594 7.11914 27.8594H5.41602V35H4.44727ZM11.3047 35V29H12.1953V29.9062H12.2578C12.3672 29.6094 12.5651 29.3685 12.8516 29.1836C13.138 28.9987 13.4609 28.9062 13.8203 28.9062C13.888 28.9062 13.9727 28.9076 14.0742 28.9102C14.1758 28.9128 14.2526 28.9167 14.3047 28.9219V29.8594C14.2734 29.8516 14.2018 29.8398 14.0898 29.8242C13.9805 29.806 13.8646 29.7969 13.7422 29.7969C13.4505 29.7969 13.1901 29.8581 12.9609 29.9805C12.7344 30.1003 12.5547 30.2669 12.4219 30.4805C12.2917 30.6914 12.2266 30.9323 12.2266 31.2031V35H11.3047ZM17.6523 35.125C17.1107 35.125 16.6354 34.9961 16.2266 34.7383C15.8203 34.4805 15.5026 34.1198 15.2734 33.6562C15.0469 33.1927 14.9336 32.651 14.9336 32.0312C14.9336 31.4062 15.0469 30.8607 15.2734 30.3945C15.5026 29.9284 15.8203 29.5664 16.2266 29.3086C16.6354 29.0508 17.1107 28.9219 17.6523 28.9219C18.194 28.9219 18.668 29.0508 19.0742 29.3086C19.4831 29.5664 19.8008 29.9284 20.0273 30.3945C20.2565 30.8607 20.3711 31.4062 20.3711 32.0312C20.3711 32.651 20.2565 33.1927 20.0273 33.6562C19.8008 34.1198 19.4831 34.4805 19.0742 34.7383C18.668 34.9961 18.194 35.125 17.6523 35.125ZM17.6523 34.2969C18.0638 34.2969 18.4023 34.1914 18.668 33.9805C18.9336 33.7695 19.1302 33.4922 19.2578 33.1484C19.3854 32.8047 19.4492 32.4323 19.4492 32.0312C19.4492 31.6302 19.3854 31.2565 19.2578 30.9102C19.1302 30.5638 18.9336 30.2839 18.668 30.0703C18.4023 29.8568 18.0638 29.75 17.6523 29.75C17.2409 29.75 16.9023 29.8568 16.6367 30.0703C16.3711 30.2839 16.1745 30.5638 16.0469 30.9102C15.9193 31.2565 15.8555 31.6302 15.8555 32.0312C15.8555 32.4323 15.9193 32.8047 16.0469 33.1484C16.1745 33.4922 16.3711 33.7695 16.6367 33.9805C16.9023 34.1914 17.2409 34.2969 17.6523 34.2969ZM24.4502 29V29.7812H21.2158V29H24.4502ZM22.1846 35V28.1719C22.1846 27.8281 22.2653 27.5417 22.4268 27.3125C22.5882 27.0833 22.7979 26.9115 23.0557 26.7969C23.3135 26.6823 23.5856 26.625 23.8721 26.625C24.0986 26.625 24.2835 26.6432 24.4268 26.6797C24.57 26.7161 24.6768 26.75 24.7471 26.7812L24.4814 27.5781C24.4346 27.5625 24.3695 27.543 24.2861 27.5195C24.2054 27.4961 24.0986 27.4844 23.9658 27.4844C23.6611 27.4844 23.4411 27.5612 23.3057 27.7148C23.1729 27.8685 23.1064 28.0937 23.1064 28.3906V35H22.1846ZM25.7422 35V29H26.6641V35H25.7422ZM26.2109 28C26.0313 28 25.8763 27.9388 25.7461 27.8164C25.6185 27.694 25.5547 27.5469 25.5547 27.375C25.5547 27.2031 25.6185 27.056 25.7461 26.9336C25.8763 26.8112 26.0313 26.75 26.2109 26.75C26.3906 26.75 26.5443 26.8112 26.6719 26.9336C26.8021 27.056 26.8672 27.2031 26.8672 27.375C26.8672 27.5469 26.8021 27.694 26.6719 27.8164C26.5443 27.9388 26.3906 28 26.2109 28ZM29.2744 27V35H28.3525V27H29.2744ZM33.4785 35.125C32.9004 35.125 32.4017 34.9974 31.9824 34.7422C31.5658 34.4844 31.2441 34.125 31.0176 33.6641C30.7936 33.2005 30.6816 32.6615 30.6816 32.0469C30.6816 31.4323 30.7936 30.8906 31.0176 30.4219C31.2441 29.9505 31.5592 29.5833 31.9629 29.3203C32.3691 29.0547 32.8431 28.9219 33.3848 28.9219C33.6973 28.9219 34.0059 28.974 34.3105 29.0781C34.6152 29.1823 34.8926 29.3516 35.1426 29.5859C35.3926 29.8177 35.5918 30.125 35.7402 30.5078C35.8887 30.8906 35.9629 31.362 35.9629 31.9219V32.3125H31.3379V31.5156H35.0254C35.0254 31.1771 34.9577 30.875 34.8223 30.6094C34.6895 30.3437 34.4993 30.1341 34.252 29.9805C34.0072 29.8268 33.7181 29.75 33.3848 29.75C33.0176 29.75 32.6999 29.8411 32.4316 30.0234C32.166 30.2031 31.9616 30.4375 31.8184 30.7266C31.6751 31.0156 31.6035 31.3255 31.6035 31.6562V32.1875C31.6035 32.6406 31.6816 33.0247 31.8379 33.3398C31.9967 33.6523 32.2168 33.8906 32.498 34.0547C32.7793 34.2161 33.1061 34.2969 33.4785 34.2969C33.7207 34.2969 33.9395 34.263 34.1348 34.1953C34.3327 34.125 34.5033 34.0208 34.6465 33.8828C34.7897 33.7422 34.9004 33.5677 34.9785 33.3594L35.8691 33.6094C35.7754 33.9115 35.6178 34.1771 35.3965 34.4062C35.1751 34.6328 34.9017 34.8099 34.5762 34.9375C34.2507 35.0625 33.8848 35.125 33.4785 35.125Z" fill="#C2C2C2"/>
</svg>
