<svg width="46" height="38" viewBox="0 0 46 38" fill="none" xmlns="http://www.w3.org/2000/svg">
<path fill-rule="evenodd" clip-rule="evenodd" d="M17 3C16.7348 3 16.4805 3.10536 16.2929 3.29289C16.1054 3.48043 16 3.73478 16 4C16 4.26522 16.1054 4.51957 16.2929 4.70711C16.4805 4.89464 16.7348 5 17 5H29C29.2652 5 29.5196 4.89464 29.7071 4.70711C29.8947 4.51957 30 4.26522 30 4C30 3.73478 29.8947 3.48043 29.7071 3.29289C29.5196 3.10536 29.2652 3 29 3H17ZM15.18 6C14.8896 6.00011 14.6027 6.06347 14.3392 6.18567C14.0758 6.30787 13.8421 6.48598 13.6544 6.70762C13.4668 6.92926 13.3296 7.18911 13.2525 7.46911C13.1754 7.74911 13.1603 8.04254 13.208 8.329L14.874 18.329C14.9519 18.796 15.1929 19.2202 15.5542 19.5262C15.9155 19.8322 16.3736 20.0001 16.847 20H29.153C29.6265 20.0001 30.0846 19.8322 30.4459 19.5262C30.8071 19.2202 31.0482 18.796 31.126 18.329L32.792 8.329C32.8398 8.04254 32.8246 7.74911 32.7475 7.46911C32.6704 7.18911 32.5333 6.92926 32.3456 6.70762C32.158 6.48598 31.9243 6.30787 31.6608 6.18567C31.3974 6.06347 31.1105 6.00011 30.82 6H15.18ZM15.18 8H30.82L29.153 18H16.847L15.18 8Z" fill="#C2C2C2"/>
<path d="M0.98584 35V27H3.68897C4.31657 27 4.82959 27.1133 5.22803 27.3398C5.62907 27.5638 5.92594 27.8672 6.11865 28.25C6.31136 28.6328 6.40772 29.0599 6.40772 29.5312C6.40772 30.0026 6.31136 30.431 6.11865 30.8164C5.92855 31.2018 5.63428 31.5091 5.23584 31.7383C4.8374 31.9648 4.32699 32.0781 3.70459 32.0781H1.76709V31.2188H3.67334C4.10303 31.2188 4.44808 31.1445 4.7085 30.9961C4.96891 30.8477 5.15771 30.6471 5.2749 30.3945C5.39469 30.1393 5.45459 29.8516 5.45459 29.5312C5.45459 29.2109 5.39469 28.9245 5.2749 28.6719C5.15771 28.4193 4.96761 28.2214 4.70459 28.0781C4.44157 27.9323 4.09261 27.8594 3.65771 27.8594H1.95459V35H0.98584ZM7.84326 35V29H8.73389V29.9062H8.79639C8.90576 29.6094 9.10368 29.3685 9.39014 29.1836C9.6766 28.9987 9.99951 28.9062 10.3589 28.9062C10.4266 28.9062 10.5112 28.9076 10.6128 28.9102C10.7144 28.9128 10.7912 28.9167 10.8433 28.9219V29.8594C10.812 29.8516 10.7404 29.8398 10.6284 29.8242C10.519 29.806 10.4032 29.7969 10.2808 29.7969C9.9891 29.7969 9.72868 29.8581 9.49951 29.9805C9.27295 30.1003 9.09326 30.2669 8.96045 30.4805C8.83024 30.6914 8.76514 30.9323 8.76514 31.2031V35H7.84326ZM14.1909 35.125C13.6493 35.125 13.174 34.9961 12.7651 34.7383C12.3589 34.4805 12.0412 34.1198 11.812 33.6562C11.5854 33.1927 11.4722 32.651 11.4722 32.0312C11.4722 31.4062 11.5854 30.8607 11.812 30.3945C12.0412 29.9284 12.3589 29.5664 12.7651 29.3086C13.174 29.0508 13.6493 28.9219 14.1909 28.9219C14.7326 28.9219 15.2065 29.0508 15.6128 29.3086C16.0216 29.5664 16.3394 29.9284 16.5659 30.3945C16.7951 30.8607 16.9097 31.4062 16.9097 32.0312C16.9097 32.651 16.7951 33.1927 16.5659 33.6562C16.3394 34.1198 16.0216 34.4805 15.6128 34.7383C15.2065 34.9961 14.7326 35.125 14.1909 35.125ZM14.1909 34.2969C14.6024 34.2969 14.9409 34.1914 15.2065 33.9805C15.4722 33.7695 15.6688 33.4922 15.7964 33.1484C15.924 32.8047 15.9878 32.4323 15.9878 32.0312C15.9878 31.6302 15.924 31.2565 15.7964 30.9102C15.6688 30.5638 15.4722 30.2839 15.2065 30.0703C14.9409 29.8568 14.6024 29.75 14.1909 29.75C13.7795 29.75 13.4409 29.8568 13.1753 30.0703C12.9097 30.2839 12.7131 30.5638 12.5854 30.9102C12.4578 31.2565 12.394 31.6302 12.394 32.0312C12.394 32.4323 12.4578 32.8047 12.5854 33.1484C12.7131 33.4922 12.9097 33.7695 13.1753 33.9805C13.4409 34.1914 13.7795 34.2969 14.1909 34.2969ZM20.7388 37.375C20.2935 37.375 19.9106 37.3177 19.5903 37.2031C19.27 37.0911 19.0031 36.9427 18.7896 36.7578C18.5786 36.5755 18.4106 36.3802 18.2856 36.1719L19.02 35.6563C19.1034 35.7656 19.2088 35.8906 19.3364 36.0312C19.464 36.1745 19.6385 36.2982 19.8599 36.4023C20.0838 36.5091 20.3768 36.5625 20.7388 36.5625C21.2231 36.5625 21.6229 36.4453 21.938 36.2109C22.2531 35.9766 22.4106 35.6094 22.4106 35.1094V33.8906H22.3325C22.2648 34 22.1685 34.1354 22.0435 34.2969C21.9211 34.4557 21.744 34.5977 21.5122 34.7227C21.283 34.8451 20.9731 34.9062 20.5825 34.9062C20.0981 34.9062 19.6632 34.7917 19.2778 34.5625C18.895 34.3333 18.5916 34 18.3677 33.5625C18.1463 33.125 18.0356 32.5937 18.0356 31.9687C18.0356 31.3542 18.1437 30.819 18.3599 30.3633C18.576 29.9049 18.8768 29.5508 19.2622 29.3008C19.6476 29.0482 20.0929 28.9219 20.5981 28.9219C20.9888 28.9219 21.2987 28.987 21.5278 29.1172C21.7596 29.2448 21.9367 29.3906 22.0591 29.5547C22.1841 29.7161 22.2804 29.849 22.3481 29.9531H22.4419V29H23.3325V35.1719C23.3325 35.6875 23.2153 36.1068 22.981 36.4297C22.7492 36.7552 22.4367 36.9935 22.0435 37.1445C21.6528 37.2982 21.2179 37.375 20.7388 37.375ZM20.7075 34.0781C21.0773 34.0781 21.3898 33.9935 21.645 33.8242C21.9002 33.6549 22.0942 33.4115 22.2271 33.0938C22.3599 32.776 22.4263 32.3958 22.4263 31.9531C22.4263 31.5208 22.3612 31.1393 22.231 30.8086C22.1007 30.4779 21.908 30.2187 21.6528 30.0312C21.3976 29.8437 21.0825 29.75 20.7075 29.75C20.3169 29.75 19.9914 29.849 19.731 30.0469C19.4731 30.2448 19.2791 30.5104 19.1489 30.8438C19.0213 31.1771 18.9575 31.5469 18.9575 31.9531C18.9575 32.3698 19.0226 32.7383 19.1528 33.0586C19.2856 33.3763 19.481 33.6263 19.7388 33.8086C19.9992 33.9883 20.3221 34.0781 20.7075 34.0781ZM25.02 35V29H25.9106V29.9062H25.9731C26.0825 29.6094 26.2804 29.3685 26.5669 29.1836C26.8534 28.9987 27.1763 28.9062 27.5356 28.9062C27.6034 28.9062 27.688 28.9076 27.7896 28.9102C27.8911 28.9128 27.9679 28.9167 28.02 28.9219V29.8594C27.9888 29.8516 27.9172 29.8398 27.8052 29.8242C27.6958 29.806 27.5799 29.7969 27.4575 29.7969C27.1659 29.7969 26.9054 29.8581 26.6763 29.9805C26.4497 30.1003 26.27 30.2669 26.1372 30.4805C26.007 30.6914 25.9419 30.9323 25.9419 31.2031V35H25.02ZM31.4458 35.125C30.8677 35.125 30.369 34.9974 29.9497 34.7422C29.533 34.4844 29.2114 34.125 28.9849 33.6641C28.7609 33.2005 28.6489 32.6615 28.6489 32.0469C28.6489 31.4323 28.7609 30.8906 28.9849 30.4219C29.2114 29.9505 29.5265 29.5833 29.9302 29.3203C30.3364 29.0547 30.8104 28.9219 31.3521 28.9219C31.6646 28.9219 31.9731 28.974 32.2778 29.0781C32.5825 29.1823 32.8599 29.3516 33.1099 29.5859C33.3599 29.8177 33.5591 30.125 33.7075 30.5078C33.856 30.8906 33.9302 31.362 33.9302 31.9219V32.3125H29.3052V31.5156H32.9927C32.9927 31.1771 32.925 30.875 32.7896 30.6094C32.6567 30.3437 32.4666 30.1341 32.2192 29.9805C31.9744 29.8268 31.6854 29.75 31.3521 29.75C30.9849 29.75 30.6672 29.8411 30.3989 30.0234C30.1333 30.2031 29.9289 30.4375 29.7856 30.7266C29.6424 31.0156 29.5708 31.3255 29.5708 31.6562V32.1875C29.5708 32.6406 29.6489 33.0247 29.8052 33.3398C29.964 33.6523 30.1841 33.8906 30.4653 34.0547C30.7466 34.2161 31.0734 34.2969 31.4458 34.2969C31.688 34.2969 31.9067 34.263 32.1021 34.1953C32.3 34.125 32.4705 34.0208 32.6138 33.8828C32.757 33.7422 32.8677 33.5677 32.9458 33.3594L33.8364 33.6094C33.7427 33.9115 33.5851 34.1771 33.3638 34.4062C33.1424 34.6328 32.869 34.8099 32.5435 34.9375C32.2179 35.0625 31.8521 35.125 31.4458 35.125ZM39.5825 30.3437L38.7544 30.5781C38.7023 30.4401 38.6255 30.306 38.5239 30.1758C38.425 30.043 38.2896 29.9336 38.1177 29.8477C37.9458 29.7617 37.7257 29.7187 37.4575 29.7187C37.0903 29.7187 36.7843 29.8034 36.5396 29.9727C36.2974 30.1393 36.1763 30.3516 36.1763 30.6094C36.1763 30.8385 36.2596 31.0195 36.4263 31.1523C36.5929 31.2852 36.8534 31.3958 37.2075 31.4844L38.0981 31.7031C38.6346 31.8333 39.0343 32.0326 39.2974 32.3008C39.5604 32.5664 39.6919 32.9089 39.6919 33.3281C39.6919 33.6719 39.5929 33.9792 39.395 34.25C39.1997 34.5208 38.9263 34.7344 38.5747 34.8906C38.2231 35.0469 37.8143 35.125 37.3481 35.125C36.7362 35.125 36.2297 34.9922 35.8286 34.7266C35.4276 34.4609 35.1737 34.0729 35.0669 33.5625L35.9419 33.3437C36.0252 33.6667 36.1828 33.9089 36.4146 34.0703C36.6489 34.2318 36.9549 34.3125 37.3325 34.3125C37.7622 34.3125 38.1034 34.2214 38.356 34.0391C38.6112 33.8542 38.7388 33.6328 38.7388 33.375C38.7388 33.1667 38.6659 32.9922 38.52 32.8516C38.3742 32.7083 38.1502 32.6016 37.8481 32.5312L36.8481 32.2969C36.2987 32.1667 35.895 31.9648 35.6372 31.6914C35.382 31.4154 35.2544 31.0703 35.2544 30.6562C35.2544 30.3177 35.3494 30.0182 35.5396 29.7578C35.7323 29.4974 35.994 29.293 36.3247 29.1445C36.658 28.9961 37.0356 28.9219 37.4575 28.9219C38.0513 28.9219 38.5174 29.0521 38.856 29.3125C39.1971 29.5729 39.4393 29.9167 39.5825 30.3437ZM45.3296 30.3437L44.5015 30.5781C44.4494 30.4401 44.3726 30.306 44.271 30.1758C44.172 30.043 44.0366 29.9336 43.8647 29.8477C43.6929 29.7617 43.4728 29.7187 43.2046 29.7187C42.8374 29.7187 42.5314 29.8034 42.2866 29.9727C42.0444 30.1393 41.9233 30.3516 41.9233 30.6094C41.9233 30.8385 42.0067 31.0195 42.1733 31.1523C42.34 31.2852 42.6004 31.3958 42.9546 31.4844L43.8452 31.7031C44.3817 31.8333 44.7814 32.0326 45.0444 32.3008C45.3075 32.5664 45.439 32.9089 45.439 33.3281C45.439 33.6719 45.34 33.9792 45.1421 34.25C44.9468 34.5208 44.6733 34.7344 44.3218 34.8906C43.9702 35.0469 43.5614 35.125 43.0952 35.125C42.4832 35.125 41.9767 34.9922 41.5757 34.7266C41.1746 34.4609 40.9207 34.0729 40.814 33.5625L41.689 33.3437C41.7723 33.6667 41.9299 33.9089 42.1616 34.0703C42.396 34.2318 42.702 34.3125 43.0796 34.3125C43.5093 34.3125 43.8504 34.2214 44.103 34.0391C44.3582 33.8542 44.4858 33.6328 44.4858 33.375C44.4858 33.1667 44.4129 32.9922 44.2671 32.8516C44.1213 32.7083 43.8973 32.6016 43.5952 32.5312L42.5952 32.2969C42.0457 32.1667 41.6421 31.9648 41.3843 31.6914C41.1291 31.4154 41.0015 31.0703 41.0015 30.6562C41.0015 30.3177 41.0965 30.0182 41.2866 29.7578C41.4793 29.4974 41.741 29.293 42.0718 29.1445C42.4051 28.9961 42.7827 28.9219 43.2046 28.9219C43.7983 28.9219 44.2645 29.0521 44.603 29.3125C44.9442 29.5729 45.1864 29.9167 45.3296 30.3437Z" fill="#C2C2C2"/>
</svg>
