<svg width="40" height="38" viewBox="0 0 40 38" fill="none" xmlns="http://www.w3.org/2000/svg">
<path fill-rule="evenodd" clip-rule="evenodd" d="M19.9999 1C20.1748 1.00005 20.3466 1.04597 20.4982 1.13318C20.6498 1.22039 20.7759 1.34584 20.8639 1.497L22.9049 5L26.8689 5.859C27.0397 5.89608 27.1978 5.97729 27.3274 6.09452C27.4571 6.21175 27.5537 6.36091 27.6078 6.52714C27.6618 6.69336 27.6713 6.87085 27.6354 7.04189C27.5994 7.21294 27.5193 7.37158 27.4029 7.502L24.7009 10.526L25.1089 14.561C25.1265 14.735 25.0982 14.9106 25.0268 15.0702C24.9554 15.2298 24.8434 15.368 24.7019 15.4708C24.5604 15.5736 24.3945 15.6375 24.2206 15.6561C24.0467 15.6748 23.8709 15.6475 23.7109 15.577L22.6689 15.118L23.9739 20.774C24.0079 20.9206 24.0084 21.073 23.9753 21.2199C23.9422 21.3667 23.8764 21.5042 23.7828 21.622C23.6891 21.7399 23.5701 21.8351 23.4345 21.9005C23.299 21.966 23.1504 22 22.9999 22H16.9999C16.8495 21.9999 16.701 21.966 16.5656 21.9006C16.4301 21.8352 16.3111 21.7401 16.2175 21.6224C16.1239 21.5046 16.0581 21.3673 16.0249 21.2206C15.9917 21.0739 15.9921 20.9216 16.0259 20.775L17.3299 15.12L16.2879 15.58C16.1278 15.6506 15.9519 15.6779 15.7779 15.6592C15.604 15.6405 15.4379 15.5765 15.2964 15.4736C15.1549 15.3706 15.0429 15.2323 14.9716 15.0726C14.9002 14.9128 14.8721 14.7371 14.8899 14.563L15.2979 10.528L12.5959 7.504C12.4793 7.37359 12.3989 7.21488 12.3628 7.04369C12.3267 6.87251 12.3362 6.69486 12.3902 6.52847C12.4443 6.36208 12.541 6.21278 12.6708 6.09548C12.8006 5.97818 12.9589 5.89699 13.1299 5.86L17.0949 5L19.1349 1.496C19.2231 1.34488 19.3494 1.21954 19.5012 1.1325C19.653 1.04546 19.8249 0.999774 19.9999 1ZM19.6159 14.112L18.2569 20H21.7429L20.3839 14.112L19.9999 13.942L19.6159 14.112ZM19.9999 3.987L18.5999 6.389C18.5301 6.50893 18.436 6.613 18.3238 6.69461C18.2115 6.77621 18.0835 6.83356 17.9479 6.863L15.2309 7.451L17.0829 9.523C17.1757 9.62659 17.2458 9.7484 17.2889 9.88064C17.3319 10.0129 17.3469 10.1526 17.3329 10.291L17.0529 13.056L19.5959 11.935C19.7229 11.8791 19.8601 11.8502 19.9989 11.8502C20.1377 11.8502 20.2749 11.8791 20.4019 11.935L22.9459 13.055L22.6659 10.29C22.6519 10.1519 22.6668 10.0123 22.7097 9.88029C22.7525 9.74824 22.8224 9.62656 22.9149 9.523L24.7669 7.451L22.0499 6.863C21.9143 6.83356 21.7863 6.77621 21.674 6.69461C21.5618 6.613 21.4677 6.50893 21.3979 6.389L19.9999 3.987Z" fill="#C2C2C2"/>
<path d="M2.14355 35H1.12793L4.06543 27H5.06543L8.00293 35H6.9873L4.59668 28.2656H4.53418L2.14355 35ZM2.51855 31.875H6.6123V32.7344H2.51855V31.875ZM9.73145 35L7.90332 29H8.87207L10.1689 33.5938H10.2314L11.5127 29H12.4971L13.7627 33.5781H13.8252L15.1221 29H16.0908L14.2627 35H13.3564L12.0439 30.3906H11.9502L10.6377 35H9.73145ZM19.0752 35.1406C18.695 35.1406 18.3499 35.069 18.04 34.9258C17.7301 34.7799 17.484 34.5703 17.3018 34.2969C17.1195 34.0208 17.0283 33.6875 17.0283 33.2969C17.0283 32.9531 17.096 32.6745 17.2314 32.4609C17.3669 32.2448 17.5479 32.0755 17.7744 31.9531C18.001 31.8307 18.251 31.7396 18.5244 31.6797C18.8005 31.6172 19.0778 31.5677 19.3564 31.5313C19.721 31.4844 20.0166 31.4492 20.2432 31.4258C20.4723 31.3997 20.639 31.3568 20.7432 31.2969C20.8499 31.237 20.9033 31.1328 20.9033 30.9844V30.9531C20.9033 30.5677 20.7979 30.2682 20.5869 30.0547C20.3786 29.8411 20.0622 29.7344 19.6377 29.7344C19.1976 29.7344 18.8525 29.8307 18.6025 30.0234C18.3525 30.2161 18.1768 30.4219 18.0752 30.6406L17.2002 30.3281C17.3564 29.9635 17.5648 29.6797 17.8252 29.4766C18.0882 29.2708 18.3747 29.1276 18.6846 29.0469C18.9971 28.9635 19.3044 28.9219 19.6064 28.9219C19.7992 28.9219 20.0205 28.9453 20.2705 28.9922C20.5231 29.0365 20.7666 29.1289 21.001 29.2695C21.238 29.4102 21.4346 29.6224 21.5908 29.9062C21.7471 30.1901 21.8252 30.5703 21.8252 31.0469V35H20.9033V34.1875H20.8564C20.7939 34.3177 20.6898 34.457 20.5439 34.6055C20.3981 34.7539 20.2041 34.8802 19.9619 34.9844C19.7197 35.0885 19.4242 35.1406 19.0752 35.1406ZM19.2158 34.3125C19.5804 34.3125 19.8877 34.2409 20.1377 34.0977C20.3903 33.9544 20.5804 33.7695 20.708 33.543C20.8382 33.3164 20.9033 33.0781 20.9033 32.8281V31.9844C20.8643 32.0312 20.7783 32.0742 20.6455 32.1133C20.5153 32.1497 20.3643 32.1823 20.1924 32.2109C20.0231 32.237 19.8577 32.2604 19.6963 32.2812C19.5374 32.2995 19.4085 32.3151 19.3096 32.3281C19.07 32.3594 18.846 32.4102 18.6377 32.4805C18.432 32.5482 18.2653 32.651 18.1377 32.7891C18.0127 32.9245 17.9502 33.1094 17.9502 33.3437C17.9502 33.6641 18.0687 33.9062 18.3057 34.0703C18.5452 34.2318 18.8486 34.3125 19.2158 34.3125ZM23.5078 35V29H24.3984V29.9062H24.4609C24.5703 29.6094 24.7682 29.3685 25.0547 29.1836C25.3411 28.9987 25.6641 28.9062 26.0234 28.9062C26.0911 28.9062 26.1758 28.9076 26.2773 28.9102C26.3789 28.9128 26.4557 28.9167 26.5078 28.9219V29.8594C26.4766 29.8516 26.4049 29.8398 26.293 29.8242C26.1836 29.806 26.0677 29.7969 25.9453 29.7969C25.6536 29.7969 25.3932 29.8581 25.1641 29.9805C24.9375 30.1003 24.7578 30.2669 24.625 30.4805C24.4948 30.6914 24.4297 30.9323 24.4297 31.2031V35H23.5078ZM29.6836 35.125C29.1836 35.125 28.7422 34.9987 28.3594 34.7461C27.9766 34.4909 27.6771 34.1315 27.4609 33.668C27.2448 33.2018 27.1367 32.651 27.1367 32.0156C27.1367 31.3854 27.2448 30.8385 27.4609 30.375C27.6771 29.9115 27.9779 29.5534 28.3633 29.3008C28.7487 29.0482 29.194 28.9219 29.6992 28.9219C30.0898 28.9219 30.3984 28.987 30.625 29.1172C30.8542 29.2448 31.0286 29.3906 31.1484 29.5547C31.2708 29.7161 31.3659 29.849 31.4336 29.9531H31.5117V27H32.4336V35H31.543V34.0781H31.4336C31.3659 34.1875 31.2695 34.3255 31.1445 34.4922C31.0195 34.6562 30.8411 34.8034 30.6094 34.9336C30.3776 35.0612 30.069 35.125 29.6836 35.125ZM29.8086 34.2969C30.1784 34.2969 30.4909 34.2005 30.7461 34.0078C31.0013 33.8125 31.1953 33.543 31.3281 33.1992C31.4609 32.8529 31.5273 32.4531 31.5273 32C31.5273 31.5521 31.4622 31.1602 31.332 30.8242C31.2018 30.4857 31.0091 30.2227 30.7539 30.0352C30.4987 29.8451 30.1836 29.75 29.8086 29.75C29.418 29.75 29.0924 29.8503 28.832 30.0508C28.5742 30.2487 28.3802 30.5182 28.25 30.8594C28.1224 31.1979 28.0586 31.5781 28.0586 32C28.0586 32.4271 28.1237 32.8151 28.2539 33.1641C28.3867 33.5104 28.582 33.7865 28.8398 33.9922C29.1003 34.1953 29.4232 34.2969 29.8086 34.2969ZM38.5 30.3437L37.6719 30.5781C37.6198 30.4401 37.543 30.306 37.4414 30.1758C37.3424 30.043 37.207 29.9336 37.0352 29.8477C36.8633 29.7617 36.6432 29.7187 36.375 29.7187C36.0078 29.7187 35.7018 29.8034 35.457 29.9727C35.2148 30.1393 35.0938 30.3516 35.0938 30.6094C35.0938 30.8385 35.1771 31.0195 35.3438 31.1523C35.5104 31.2852 35.7708 31.3958 36.125 31.4844L37.0156 31.7031C37.5521 31.8333 37.9518 32.0326 38.2148 32.3008C38.4779 32.5664 38.6094 32.9089 38.6094 33.3281C38.6094 33.6719 38.5104 33.9792 38.3125 34.25C38.1172 34.5208 37.8438 34.7344 37.4922 34.8906C37.1406 35.0469 36.7318 35.125 36.2656 35.125C35.6536 35.125 35.1471 34.9922 34.7461 34.7266C34.3451 34.4609 34.0911 34.0729 33.9844 33.5625L34.8594 33.3437C34.9427 33.6667 35.1003 33.9089 35.332 34.0703C35.5664 34.2318 35.8724 34.3125 36.25 34.3125C36.6797 34.3125 37.0208 34.2214 37.2734 34.0391C37.5286 33.8542 37.6563 33.6328 37.6563 33.375C37.6563 33.1667 37.5833 32.9922 37.4375 32.8516C37.2917 32.7083 37.0677 32.6016 36.7656 32.5312L35.7656 32.2969C35.2161 32.1667 34.8125 31.9648 34.5547 31.6914C34.2995 31.4154 34.1719 31.0703 34.1719 30.6562C34.1719 30.3177 34.2669 30.0182 34.457 29.7578C34.6497 29.4974 34.9115 29.293 35.2422 29.1445C35.5755 28.9961 35.9531 28.9219 36.375 28.9219C36.9688 28.9219 37.4349 29.0521 37.7734 29.3125C38.1146 29.5729 38.3568 29.9167 38.5 30.3437Z" fill="#C2C2C2"/>
</svg>
