<svg width="56" height="56" viewBox="0 0 56 56" fill="none" xmlns="http://www.w3.org/2000/svg">
<circle cx="28" cy="28" r="28" fill="#F6F6F6" fill-opacity="0.1"/>
<path d="M34.9583 26.9565C34.9583 26.5095 34.9583 26.2861 35.0254 26.0872C35.2205 25.5085 35.7359 25.285 36.2525 25.05C36.8312 24.7852 37.1205 24.6534 37.4086 24.6302C37.7341 24.6043 38.0609 24.6741 38.3399 24.8304C38.7093 25.037 38.9676 25.4323 39.2311 25.7526C40.4492 27.2329 41.0588 27.973 41.281 28.788C41.4618 29.4468 41.4618 30.1365 41.281 30.794C40.9568 31.9849 39.9299 32.9821 39.1691 33.9069C38.7803 34.3784 38.5853 34.6147 38.3399 34.753C38.0561 34.9103 37.732 34.98 37.4086 34.9532C37.1205 34.9299 36.8312 34.7982 36.2512 34.5334C35.7346 34.2983 35.2205 34.0748 35.0254 33.4962C34.9583 33.2972 34.9583 33.0738 34.9583 32.6269V26.9565ZM22.0416 26.9565C22.0416 26.3933 22.0261 25.8882 21.5714 25.493C21.4061 25.3496 21.1865 25.2502 20.7487 25.05C20.1687 24.7865 19.8794 24.6534 19.5913 24.6302C18.7298 24.5604 18.2661 25.1494 17.7701 25.7539C16.5507 27.2329 15.9411 27.973 15.7176 28.7893C15.5378 29.4459 15.5378 30.1387 15.7176 30.7953C16.0431 31.9849 17.0713 32.9834 17.8308 33.9069C18.31 34.4882 18.7685 35.019 19.5913 34.9532C19.8794 34.9299 20.1687 34.7982 20.7487 34.5334C21.1878 34.3345 21.4061 34.2337 21.5714 34.0903C22.0261 33.6951 22.0416 33.19 22.0416 32.6282V26.9565Z" stroke="#F6F6F6" stroke-width="1.5" stroke-linecap="round" stroke-linejoin="round"/>
<path d="M19.4583 24.625C19.4583 20.3444 23.5063 16.875 28.4999 16.875C33.4935 16.875 37.5416 20.3444 37.5416 24.625M37.5416 34.9583V35.9917C37.5416 38.274 35.2295 40.125 32.3749 40.125H29.7916" stroke="#F6F6F6" stroke-width="1.5" stroke-linecap="round" stroke-linejoin="round"/>
</svg>
